<svg width="84" height="81" viewBox="0 0 84 81" fill="none" xmlns="http://www.w3.org/2000/svg">
<path d="M53.5478 64.6659C41.6133 70.2563 33.9246 69.5696 30.7758 69.0792C28.1453 68.6689 23.6521 67.9265 19.6061 64.3953C16.5859 61.7578 14.5663 58.0967 13.442 54.2362C10.8817 45.4545 12.8779 35.7321 17.567 27.8842C22.256 20.0363 29.4265 13.9164 37.2555 9.2169C41.2256 6.8344 45.634 4.72346 50.2568 4.98428C54.8796 5.24509 59.6096 8.63373 59.8804 13.2649C60.9024 7.58558 56.0906 2.10164 50.5335 0.598294C44.9764 -0.905053 39.0569 0.646159 33.7131 2.7991C25.208 6.22974 17.2484 11.277 11.1506 18.1354C-2.38562 33.3535 -5.44476 61.4091 12.4171 74.9177C18.9328 79.8439 27.4809 81.613 35.6042 80.8168C46.4982 79.7482 54.1431 75.4814 58.4853 72.6583C74.7338 62.0988 81.0528 45.7954 83.2049 39.1422C77.9956 46.5271 68.4499 57.6835 53.5478 64.6659Z" fill="url(#paint0_linear_7_6)"/>
<defs>
<linearGradient id="paint0_linear_7_6" x1="74.0996" y1="-22.8145" x2="-10.1221" y2="136.746" gradientUnits="userSpaceOnUse">
<stop offset="0.01" stop-color="#FBB040"/>
<stop offset="0.35" stop-color="#EF4136"/>
<stop offset="0.68" stop-color="#ED1C24"/>
<stop offset="1" stop-color="#BE1E2D"/>
</linearGradient>
</defs>
</svg>
